<svg width="20" height="24" viewBox="0 0 20 24" fill="none" xmlns="http://www.w3.org/2000/svg">
<g clip-path="url(#clip0_1_4093)">
<path d="M16.1025 12.7795C16.1358 16.4199 19.2462 17.6312 19.2806 17.6467C19.2542 17.7321 18.7836 19.373 17.642 21.0679C16.655 22.5333 15.6307 23.9933 14.0171 24.0235C12.4317 24.0532 11.9218 23.0684 10.1091 23.0684C8.29699 23.0684 7.73055 23.9933 6.22968 24.0532C4.67217 24.1131 3.48611 22.4687 2.49106 21.0086C0.457557 18.0222 -1.09641 12.5696 0.990183 8.88896C2.02674 7.06113 3.87926 5.90376 5.88986 5.87407C7.41928 5.84446 8.86291 6.91935 9.79787 6.91935C10.7322 6.91935 12.4865 5.62671 14.3308 5.81654C15.1027 5.84921 17.27 6.13329 18.6616 8.20258C18.5494 8.2732 16.0757 9.73616 16.1025 12.7796M13.1229 3.84074C13.9498 2.82392 14.5063 1.40848 14.3545 0C13.1626 0.0486605 11.7213 0.806877 10.8664 1.82309C10.1002 2.72308 9.4292 4.16346 9.61026 5.54401C10.9388 5.64844 12.2959 4.85817 13.1229 3.84074Z" fill="black"/>
</g>
<defs>
<clipPath id="clip0_1_4093">
<rect width="19.4336" height="23.9124" fill="white"/>
</clipPath>
</defs>
</svg>
