<svg width="19" height="18" viewBox="0 0 19 18" fill="none" xmlns="http://www.w3.org/2000/svg">
<path d="M5.25 0C4.14378 0 2.85456 0.55247 1.85483 1.38688C0.848561 2.22674 1.57217e-06 3.4684 1.57217e-06 4.94802V4.96604C-8.84278e-05 5.68058 -0.000278473 7.2703 1.21361 8.7108C1.3419 8.863 1.42022 8.9597 1.4759 9.0567C1.79285 9.6088 1.99712 10.222 2.00002 10.7541C2.01036 12.654 2.35263 14.2802 2.96034 15.4609C3.56143 16.6287 4.51064 17.5 5.75 17.5C6.1171 17.5 6.46774 17.4141 6.7713 17.208C7.0718 17.004 7.26492 16.7238 7.39129 16.4392C7.6266 15.9093 7.6845 15.228 7.7218 14.6133C7.7312 14.4583 7.7396 14.3021 7.748 14.145C7.8125 12.9426 7.8797 11.6904 8.4236 10.5799C8.607 10.2053 8.9358 10 9.25 10H9.75C10.0566 10 10.3772 10.1956 10.563 10.5532C10.956 11.5895 11.0751 12.7401 11.1899 13.8489C11.2177 14.1181 11.2453 14.3849 11.2765 14.6469C11.3515 15.2765 11.4551 15.9375 11.6947 16.4492C11.8199 16.7167 12.0012 16.9866 12.2745 17.1891C12.5585 17.3995 12.892 17.5 13.25 17.5C14.3607 17.5 15.3012 16.5984 15.9174 15.4794C16.5627 14.3074 16.9895 12.6801 17 10.7541C17.0032 10.1607 17.257 9.4714 17.627 8.886C18.9977 7.2538 19 5.72617 19 4.94802C19 3.4684 18.1514 2.22674 17.1452 1.38688C16.1455 0.55247 14.8562 0 13.75 0C12.8813 0 12.1986 0.13809 11.6427 0.37056C11.0831 0.60457 10.6906 0.91819 10.3883 1.21347C10.2564 1.34231 10.1386 1.47099 10.0414 1.57707L10.0111 1.61022C9.9015 1.72964 9.8237 1.8121 9.7506 1.87706C9.6266 1.98737 9.5714 2 9.5 2C9.4286 2 9.3734 1.98737 9.2494 1.87706C9.1763 1.8121 9.0985 1.72963 8.9889 1.61022L8.9586 1.57706C8.8614 1.47097 8.7436 1.34231 8.6117 1.21347C8.3094 0.91819 7.9169 0.60457 7.35732 0.37056C6.80138 0.13809 6.11867 0 5.25 0ZM1.5 4.94802C1.5 4.06409 2.01532 3.20674 2.81599 2.53848C3.62319 1.86476 4.58397 1.5 5.25 1.5C5.95763 1.5 6.43779 1.61191 6.77862 1.75444C7.1158 1.89543 7.354 2.08182 7.5636 2.28653C7.664 2.38463 7.7541 2.4829 7.8546 2.59257L7.8835 2.62416C7.989 2.73912 8.1148 2.8754 8.2526 2.99794C8.5502 3.26263 8.9453 3.5 9.5 3.5C10.0547 3.5 10.4498 3.26263 10.7474 2.99794C10.8852 2.8754 11.011 2.73911 11.1165 2.62415L11.1454 2.59261C11.2459 2.48291 11.336 2.38463 11.4364 2.28653C11.646 2.08181 11.8842 1.89543 12.2214 1.75444C12.5622 1.61191 13.0424 1.5 13.75 1.5C14.416 1.5 15.3768 1.86476 16.184 2.53848C16.9847 3.20674 17.5 4.06409 17.5 4.94802V4.95247C17.5 5.63106 17.5 6.7236 16.4514 7.9532C16.4299 7.9784 16.4101 8.005 16.3921 8.0328C15.9121 8.7757 15.5054 9.7614 15.5 10.7459C15.4906 12.4669 15.1079 13.8396 14.6034 14.7559C14.0697 15.7251 13.5202 16 13.25 16C13.1871 16 13.1715 15.9872 13.168 15.9843C13.1549 15.9746 13.11 15.9347 13.0532 15.8132C12.9286 15.5471 12.8426 15.1122 12.766 14.4695C12.7406 14.2559 12.7169 14.0236 12.6919 13.7775C12.5773 12.6506 12.433 11.2324 11.9497 9.98C11.9419 9.9597 11.9331 9.9397 11.9236 9.9201C11.5351 9.127 10.7361 8.5 9.75 8.5H9.25C8.2639 8.5 7.46492 9.127 7.07646 9.9201C6.38731 11.3271 6.30753 12.9068 6.24822 14.0813C6.24042 14.2358 6.23297 14.3833 6.22453 14.5225C6.18488 15.1768 6.12866 15.5866 6.02038 15.8304C5.97494 15.9328 5.93888 15.9601 5.92878 15.967C5.92164 15.9718 5.88016 16 5.75 16C5.30866 16 4.76779 15.6948 4.29403 14.7744C3.82689 13.8668 3.50951 12.493 3.49999 10.7459C3.49525 9.8743 3.17591 9.0052 2.77677 8.3099C2.64694 8.0838 2.48529 7.892 2.36958 7.7548L2.36062 7.7441C1.51061 6.73549 1.5 5.62525 1.5 4.94802Z" fill="#212121"/>
</svg>
