<svg width="18" height="18" viewBox="0 0 18 18" fill="none" xmlns="http://www.w3.org/2000/svg">
<path d="M13.8 15H10.1V13.8H13.8V10.1H15V13.8C15 14.5 14.5 15 13.8 15ZM8 6.8V4.2C8 3.5 7.5 3 6.8 3H4.2C3.5 3 3 3.5 3 4.2V6.7C3 7.5 3.5 8 4.2 8H6.7C7.5 8 8 7.5 8 6.8ZM6.8 6.8H4.3V4.3H6.8V6.8ZM15 6.8V4.2C15 3.5 14.5 3 13.8 3H11.3C10.5 3 10 3.5 10 4.2V6.7C10 7.5 10.5 8 11.2 8H13.7C14.5 8 15 7.5 15 6.8ZM13.8 6.8H11.3V4.3H13.8V6.8ZM8 13.8V11.3C8 10.5 7.5 10 6.8 10H4.2C3.5 10 3 10.5 3 11.2V13.7C3 14.5 3.5 15 4.2 15H6.7C7.5 15 8 14.5 8 13.8ZM6.8 13.8H4.3V11.3H6.8V13.8ZM6 16.8H1.6C1.4 16.8 1.2 16.6 1.2 16.4V12H0V16.4C0 17.3 0.7 18 1.6 18H6V16.8ZM18 16.4V12H16.8V16.4C16.8 16.6 16.6 16.8 16.4 16.8H12V18H16.4C17.3 18 18 17.3 18 16.4ZM18 1.6C18 0.7 17.3 0 16.4 0H12V1.2H16.4C16.6 1.2 16.8 1.4 16.8 1.6V6H18V1.6ZM1.2 1.6C1.2 1.4 1.4 1.2 1.6 1.2H6V0H1.6C0.7 0 0 0.7 0 1.6V6H1.2V1.6Z" fill="black"/>
</svg>
