<svg width="20" height="20" viewBox="0 0 20 20" fill="none" xmlns="http://www.w3.org/2000/svg">
<g clip-path="url(#clip0_1_4086)">
<path d="M6.71249 0.634898C4.78606 1.30319 3.12471 2.57164 1.97246 4.25392C0.820221 5.93621 0.237816 7.94366 0.310798 9.98141C0.383779 12.0192 1.1083 13.9798 2.37794 15.5753C3.64758 17.1709 5.39541 18.3172 7.36471 18.846C8.96127 19.258 10.634 19.2761 12.2391 18.8987C13.6931 18.5721 15.0374 17.8735 16.1404 16.8713C17.2883 15.7963 18.1215 14.4288 18.5505 12.9157C19.0167 11.2703 19.0997 9.54001 18.793 7.85758H9.82751V11.5766H15.0197C14.9159 12.1698 14.6936 12.7359 14.3659 13.2411C14.0382 13.7463 13.612 14.1803 13.1127 14.5169C12.4787 14.9363 11.764 15.2185 11.0145 15.3454C10.2627 15.4852 9.49169 15.4852 8.73996 15.3454C7.97806 15.1878 7.25731 14.8734 6.62362 14.422C5.60558 13.7014 4.84118 12.6776 4.43949 11.4968C4.031 10.2939 4.031 8.98972 4.43949 7.78679C4.72542 6.94359 5.19811 6.17586 5.82227 5.5409C6.53654 4.80093 7.44083 4.27199 8.43592 4.01213C9.43102 3.75226 10.4785 3.7715 11.4633 4.06774C12.2327 4.30392 12.9363 4.71656 13.5179 5.27278C14.1034 4.69035 14.6878 4.10641 15.2713 3.52096C15.5725 3.20614 15.9009 2.90639 16.1976 2.58404C15.3098 1.7578 14.2676 1.11489 13.1308 0.692137C11.0607 -0.0595195 8.79566 -0.0797196 6.71249 0.634898Z" fill="white"/>
<path d="M6.71737 0.63563C8.80037 -0.0794732 11.0654 -0.0598049 13.1357 0.691363C14.2727 1.11699 15.3144 1.763 16.201 2.59231C15.8997 2.91465 15.5819 3.21591 15.2746 3.52922C14.6902 4.11266 14.1062 4.69409 13.5228 5.27351C12.9411 4.71729 12.2376 4.30465 11.4682 4.06848C10.4837 3.77119 9.43626 3.75084 8.4409 4.00964C7.44554 4.26845 6.5407 4.79641 5.82564 5.53561C5.20148 6.17056 4.7288 6.93829 4.44286 7.78149L1.32031 5.36389C2.438 3.14747 4.37319 1.45208 6.71737 0.63563Z" fill="#E33629"/>
<path d="M0.483651 7.75829C0.651485 6.92651 0.930123 6.12099 1.31211 5.36328L4.43466 7.78691C4.02618 8.98985 4.02618 10.294 4.43466 11.4969C3.39432 12.3003 2.35347 13.1076 1.31211 13.919C0.355843 12.0156 0.0641973 9.84677 0.483651 7.75829Z" fill="#F8BD00"/>
<path d="M9.82879 7.85547H18.7943C19.1009 9.5379 19.018 11.2682 18.5517 12.9136C18.1228 14.4266 17.2896 15.7942 16.1417 16.8691C15.134 16.0829 14.1217 15.3026 13.114 14.5163C13.6136 14.1793 14.04 13.7449 14.3677 13.2392C14.6954 12.7334 14.9176 12.1667 15.021 11.573H9.82879C9.82729 10.3348 9.82879 9.09515 9.82879 7.85547Z" fill="#587DBD"/>
<path d="M1.32031 13.9182C2.36166 13.1149 3.40251 12.3075 4.44286 11.4961C4.84536 12.6773 5.61085 13.7011 6.63 14.4213C7.26567 14.8706 7.98797 15.1825 8.75087 15.3371C9.50259 15.4769 10.2736 15.4769 11.0254 15.3371C11.7749 15.2103 12.4896 14.9281 13.1236 14.5087C14.1314 15.295 15.1436 16.0752 16.1513 16.8615C15.0485 17.8643 13.7042 18.5634 12.25 18.8905C10.6449 19.2678 8.97218 19.2497 7.37562 18.8378C6.11289 18.5006 4.93342 17.9063 3.91114 17.092C2.82911 16.2329 1.94536 15.1503 1.32031 13.9182Z" fill="#319F43"/>
</g>
<defs>
<clipPath id="clip0_1_4086">
<rect width="19.2806" height="19.2806" fill="white"/>
</clipPath>
</defs>
</svg>
