<svg width="16" height="21" viewBox="0 0 16 21" fill="none" xmlns="http://www.w3.org/2000/svg">
<path d="M15.0751 0H2.17019C0.973467 0 0 0.992915 0 2.2141V17.9867C0 18.9762 0.78925 19.7808 1.75934 19.7808H4.3649V20.5432C4.3649 20.7087 4.45309 20.8616 4.59486 20.9426C4.73664 21.0237 4.90968 21.018 5.04809 20.9312L6.20352 20.1962L7.35783 20.9301C7.42927 20.9769 7.51077 20.9997 7.59338 20.9997C7.66817 20.9997 7.74297 20.9803 7.80995 20.9426C7.95172 20.8616 8.03991 20.7087 8.03991 20.5432V19.7808H14.6287C14.7939 19.7808 14.9468 19.6872 15.0238 19.5365C15.1009 19.3859 15.0908 19.2044 14.9971 19.0652C14.5472 18.3952 14.5115 17.7653 14.8798 17.101H15.0752C15.3219 17.101 15.5217 16.8967 15.5217 16.6445V0.456449C15.5217 0.204224 15.3218 0 15.0751 0ZM14.6285 16.188H7.5968L7.59234 16.1869H4.8104L4.80593 16.188H3.51656L3.51879 0.913035H14.6287L14.6285 16.188ZM0.893162 2.21407C0.893162 1.49621 1.46584 0.913006 2.17027 0.913006H2.62576V16.188H1.75949C1.65678 16.188 1.5552 16.2006 1.45473 16.2188C1.43017 16.2234 1.40561 16.228 1.38105 16.2337C1.28281 16.2553 1.1868 16.2839 1.09304 16.3227C1.08745 16.325 1.08299 16.3284 1.07741 16.3307C1.01489 16.3581 0.952377 16.3877 0.893211 16.422L0.893162 2.21407ZM1.75943 18.8678C1.28163 18.8678 0.893162 18.4729 0.893162 17.9868C0.893162 17.7494 0.982469 17.5268 1.14322 17.3636C1.31179 17.1947 1.5306 17.1011 1.75943 17.1011H4.36498V18.8679L1.75943 18.8678ZM6.438 19.2718C6.29399 19.1805 6.11092 19.1794 5.9658 19.2718L5.25691 19.7227V19.3358C5.25691 19.3324 5.25915 19.3289 5.25915 19.3255C5.25915 19.3221 5.25691 19.3187 5.25691 19.3152V17.1023H7.14578V19.3141C7.14578 19.3175 7.14354 19.3209 7.14354 19.3255C7.14354 19.3289 7.14578 19.3324 7.14578 19.3369V19.7227L6.438 19.2718ZM13.893 18.8678H8.04011V17.1011H13.8941C13.6809 17.6877 13.6809 18.2835 13.893 18.8678Z" fill="#232F30"/>
<path d="M8.82031 3.35938V9.65938" stroke="#232F30" stroke-width="1.3"/>
<path d="M11.9688 6.51172L5.66875 6.51172" stroke="#232F30" stroke-width="1.3"/>
<path d="M5.02215 14.6063H13.2489C13.4985 14.6063 13.7007 14.4189 13.7007 14.1875V12.286C13.7007 12.0546 13.4985 11.8672 13.2489 11.8672H5.02215C4.77251 11.8672 4.57031 12.0546 4.57031 12.286V14.1875C4.57031 14.4189 4.77251 14.6063 5.02215 14.6063ZM5.47399 12.7048H12.7971V13.7687H5.47399V12.7048Z" fill="#232F30"/>
</svg>
