<svg width="19" height="20" viewBox="0 0 19 20" fill="none" xmlns="http://www.w3.org/2000/svg">
<path d="M17.8301 6.38425L10.634 0.536846C9.75235 -0.178949 8.47326 -0.178949 7.59162 0.536846L0.396499 6.3833C0.143922 6.58822 0 6.89131 0 7.21537V18.2173C0 18.8082 0.481327 19.2943 1.07226 19.2943H5.89697C6.48791 19.2943 6.96923 18.8082 6.96923 18.2173V11.2538H11.2573V18.2173C11.2573 18.8082 11.7387 19.2943 12.3296 19.2943H17.1543C17.7452 19.2943 18.2266 18.8082 18.2266 18.2173V7.21537C18.2256 6.89131 18.0817 6.58822 17.8301 6.38425ZM17.1533 18.223H12.3286V11.249C12.3286 10.6581 11.8473 10.1824 11.2564 10.1824H6.96828C6.37734 10.1824 5.89602 10.6581 5.89602 11.249V18.223H1.07226V7.21537L8.26834 1.36892C8.75729 0.970517 9.46927 0.97147 9.95822 1.36892L17.1543 7.21537L17.1533 18.223Z" fill="#0033A4"/>
<path d="M0.75945 6.83496V17.8468L0.37973 18.6063H1.51889H2.27833H4.55665L6.07553 18.986L6.45525 18.2266V16.7077V15.5685V12.5308C6.45525 11.3157 6.7084 10.7587 6.83497 10.6322H9.87273H11.7713L11.9514 14.0496V18.6063H12.5308H17.4671V14.4294V6.83496L11.7713 1.8986L8.73357 0.379723L0.75945 6.83496Z" fill="#0033A4" stroke="#0033A4" stroke-width="0.4"/>
</svg>
