<svg width="22" height="19" viewBox="0 0 22 19" fill="none" xmlns="http://www.w3.org/2000/svg">
<path d="M8.7959 0.5H13.5293C14.0715 0.5 14.5117 0.940171 14.5117 1.48242V3.55273H18.749C20.0025 3.55273 21.0362 4.5025 21.1758 5.72949L21.1914 5.97852V16.0801C21.1914 17.4186 20.11 18.5 18.7715 18.5H3.57617C2.23765 18.5 1.15625 17.4186 1.15625 16.0801V5.97168C1.15645 4.63333 2.23777 3.55273 3.57617 3.55273H7.81445V1.48242C7.81445 0.940187 8.25367 0.500026 8.7959 0.5ZM9.96777 8.24121H12.4014C12.575 8.24123 12.7339 8.31273 12.8545 8.4248L12.4365 8.41406L9.98145 8.34766L9.63086 8.33789C9.73078 8.27824 9.84538 8.2413 9.96777 8.24121ZM8.7959 0.62793C8.32071 0.627955 7.94238 1.00723 7.94238 1.48242V3.55273H14.3828V1.48242C14.3828 1.00721 14.0045 0.62793 13.5293 0.62793H8.7959ZM12.9238 8.5C13.0159 8.61518 13.0732 8.75859 13.0732 8.91406V9.93164L13.6045 9.89941C16.1564 9.7427 18.6062 9.3395 20.707 8.70703L21.0635 8.59961V5.97168C21.0633 4.69637 20.0167 3.68066 18.7715 3.68066H3.57617C2.38616 3.68066 1.40761 4.5774 1.31348 5.74609L1.30664 5.97168V8.59961L1.66211 8.70703C3.76302 9.33956 6.21358 9.74271 8.76562 9.89941L9.2959 9.93164V8.91406C9.2959 8.7418 9.36513 8.58314 9.47559 8.46289L9.46875 8.83789L9.42383 11.0498L9.41504 11.4629C9.32801 11.3495 9.27348 11.2102 9.27344 11.0596V10.0586L8.80469 10.0293C6.31142 9.8762 3.959 9.50505 1.92188 8.91992L1.28418 8.73633V16.0586C1.28439 17.3339 2.33095 18.3496 3.57617 18.3496H18.749C20.0165 18.3496 21.041 17.3335 21.041 16.0801V8.73633L20.4033 8.91992C18.3668 9.50489 15.9925 9.87615 13.4766 10.0293L13.0068 10.0576V11.0596C13.0067 11.4248 12.7002 11.7314 12.335 11.7314H9.94629C9.77372 11.7314 9.61544 11.6616 9.49512 11.5508L9.91504 11.5596L12.3701 11.6035H12.3789C12.5524 11.6035 12.6842 11.5218 12.7627 11.4434C12.8411 11.3649 12.9238 11.2331 12.9238 11.0596V8.5Z" fill="#232F30" stroke="#232F30"/>
</svg>
