<svg width="14" height="18" viewBox="0 0 14 18" fill="none" xmlns="http://www.w3.org/2000/svg">
<path d="M6.5457 18.0033C4.80967 18.0033 3.14475 17.3137 1.91719 16.0861C0.689635 14.8586 0 13.1936 0 11.4576C0.0129737 9.69068 0.62444 7.9803 1.73461 6.60561C3.02875 4.93014 3.75914 2.88793 3.82105 0.771758C3.82864 0.638406 3.86875 0.508938 3.93789 0.39466C4.00704 0.280381 4.1031 0.184766 4.21771 0.116165C4.33231 0.0475642 4.46197 0.00806252 4.59535 0.00110949C4.72874 -0.00584354 4.8618 0.0199636 4.98292 0.0762773C6.35575 0.667189 7.54554 1.61457 8.42889 2.8202C9.31225 4.02583 9.85703 5.44581 10.0067 6.9329C10.1957 6.67772 10.3575 6.4035 10.4895 6.11469C10.54 5.97496 10.6276 5.85163 10.743 5.75793C10.8583 5.66424 10.9969 5.60371 11.1441 5.58285C11.2919 5.56257 11.4425 5.58311 11.5795 5.64224C11.7165 5.70136 11.8347 5.79683 11.9214 5.91832C12.0441 6.06559 13.0914 7.63656 13.0914 11.4576C13.1013 12.3199 12.9387 13.1756 12.6132 13.9742C12.2878 14.7728 11.806 15.4983 11.1962 16.1081C10.5864 16.7179 9.86088 17.1997 9.06226 17.5252C8.26364 17.8506 7.40803 18.0132 6.5457 18.0033ZM5.32657 2.12999C5.05354 4.09078 4.28472 5.94948 3.09284 7.5302C2.16298 8.62871 1.64763 10.0184 1.63643 11.4576C1.63643 12.7596 2.15365 14.0083 3.07432 14.929C3.99499 15.8497 5.24368 16.3669 6.5457 16.3669C7.19438 16.3814 7.83927 16.2644 8.44146 16.0228C9.04365 15.7812 9.59065 15.4202 10.0494 14.9614C10.5082 14.5026 10.8693 13.9556 11.1109 13.3534C11.3525 12.7512 11.4695 12.1063 11.455 11.4576C11.472 10.3559 11.351 9.25643 11.095 8.18477C10.6651 8.72657 10.1513 9.19615 9.57309 9.57573C9.44015 9.66167 9.28513 9.70721 9.12683 9.70681C8.96852 9.70642 8.81373 9.66011 8.68122 9.5735C8.54871 9.48689 8.44417 9.3637 8.38027 9.21887C8.31637 9.07403 8.29586 8.91377 8.32122 8.75751C8.56102 7.47908 8.4024 6.15785 7.8668 4.97251C7.3312 3.78718 6.44448 2.79493 5.32657 2.12999Z" fill="#232F30"/>
</svg>
