<svg width="22" height="19" viewBox="0 0 22 19" fill="none" xmlns="http://www.w3.org/2000/svg">
<path d="M21.2935 18.2603L20.7755 17.233C20.3974 16.4831 20.3145 14.5466 20.3145 13.8686V9.75939C20.3145 8.05921 18.921 6.67748 17.2064 6.67748H15.6524V3.08191C15.6524 1.38172 14.2589 0 12.5443 0H4.77406C3.05943 0 1.66597 1.38172 1.66597 3.08191V7.19113C1.66597 7.87429 1.58309 9.80562 1.20494 10.5556L0.686925 11.5829C0.609223 11.7421 0.614403 11.9321 0.707645 12.0811C0.800888 12.2301 0.966652 12.3225 1.14796 12.3225C1.22048 12.3225 2.92993 12.3071 4.10582 11.1463L4.99162 10.2679H6.33328V13.8635C6.33328 15.5637 7.72674 16.9454 9.44136 16.9454H16.9992L17.885 17.8237C19.0609 18.9897 20.7703 19 20.8429 19C21.0242 19 21.1899 18.9075 21.2832 18.7586C21.3764 18.6096 21.3868 18.4196 21.3039 18.2603H21.2935ZM4.77406 9.24574C4.63419 9.24574 4.50469 9.30224 4.40627 9.3947L3.37024 10.422C2.97655 10.8124 2.48443 11.0281 2.05966 11.1514L2.127 11.0178C2.68128 9.91349 2.702 7.4685 2.702 7.19113V3.08191C2.702 1.94674 3.62924 1.0273 4.77406 1.0273H12.5443C13.6891 1.0273 14.6163 1.94674 14.6163 3.08191V7.19113C14.6163 8.3263 13.6891 9.24574 12.5443 9.24574H4.77406ZM18.6102 17.0995L17.5742 16.0722C17.4758 15.9746 17.3463 15.9232 17.2064 15.9232H9.43618C8.29137 15.9232 7.36413 15.0038 7.36413 13.8686V10.273H12.5443C14.0828 10.273 15.3571 9.15842 15.6057 7.70478H17.2064C18.3512 7.70478 19.2785 8.62422 19.2785 9.75939V13.8686C19.2785 14.146 19.294 16.591 19.8534 17.6953L19.9208 17.8289C19.496 17.7107 19.0039 17.4899 18.6102 17.0995Z" fill="#232F30"/>
<path d="M16.5202 11.2266H9.78381C9.49881 11.2266 9.26562 11.4209 9.26562 11.6584C9.26562 11.8959 9.49881 12.0902 9.78381 12.0902H16.5202C16.8052 12.0902 17.0384 11.8959 17.0384 11.6584C17.0384 11.4209 16.8052 11.2266 16.5202 11.2266Z" fill="#232F30"/>
<path d="M16.5202 13.8164H9.78381C9.49881 13.8164 9.26562 14.0107 9.26562 14.2482C9.26562 14.4857 9.49881 14.68 9.78381 14.68H16.5202C16.8052 14.68 17.0384 14.4857 17.0384 14.2482C17.0384 14.0107 16.8052 13.8164 16.5202 13.8164Z" fill="#232F30"/>
<path d="M7.63928 3.13979C7.63928 2.88069 7.85519 2.66871 8.11908 2.66871H9.07868C9.60646 2.66871 10.0383 3.09268 10.0383 3.61086C10.0383 4.12904 9.60646 4.55301 9.07868 4.55301C8.5509 4.55301 8.11908 4.97698 8.11908 5.49516V6.43731C8.11908 6.6964 8.33499 6.90838 8.59888 6.90838C8.86277 6.90838 9.07868 6.6964 9.07868 6.43731V5.49516C10.139 5.49516 10.9979 4.65193 10.9979 3.61086C10.9979 2.56979 10.139 1.72656 9.07868 1.72656H8.11908C7.32741 1.72656 6.67969 2.36251 6.67969 3.13979C6.67969 3.39888 6.8956 3.61086 7.15949 3.61086C7.42337 3.61086 7.63928 3.39888 7.63928 3.13979Z" fill="#232F30"/>
<path d="M9.00216 7.80752C8.84239 7.73839 8.65239 7.77728 8.53148 7.89825C8.45375 7.98035 8.40625 8.09268 8.40625 8.20502C8.40625 8.26118 8.4192 8.31735 8.4408 8.3692C8.46239 8.42104 8.49261 8.46857 8.53148 8.51178C8.61352 8.59387 8.72148 8.63707 8.83807 8.63707C8.95466 8.63707 9.06261 8.59387 9.14466 8.51178C9.18352 8.46857 9.21375 8.42104 9.23534 8.3692C9.25693 8.31735 9.26989 8.26118 9.26989 8.20502C9.26989 8.09268 9.22239 7.98035 9.14466 7.89825C9.10148 7.85937 9.05398 7.82912 9.00216 7.80752Z" fill="#232F30"/>
</svg>
